<svg width="24" height="28" viewBox="0 0 24 28" fill="none" xmlns="http://www.w3.org/2000/svg">
<path d="M16.3331 4.48728C17.3505 3.27933 18.041 1.65741 17.8589 0C16.3695 0.0702966 14.5519 0.932685 13.4996 2.14158C12.5548 3.17681 11.7185 4.86665 11.9365 6.45458C13.6085 6.59223 15.2789 5.66133 16.3331 4.48728Z" fill="white"/>
<path d="M17.8401 6.76408C15.412 6.6268 13.3475 8.0721 12.188 8.0721C11.0278 8.0721 9.25218 6.83326 7.33169 6.86665C4.83206 6.9015 2.51269 8.24298 1.24423 10.3766C-1.36477 14.6448 0.555714 20.9761 3.09283 24.4523C4.32491 26.1721 5.80978 28.0657 7.76632 27.9977C9.61493 27.9288 10.3395 26.8615 12.5866 26.8615C14.832 26.8615 15.4847 27.9977 17.4415 27.9633C19.4708 27.9288 20.7395 26.2426 21.9716 24.5211C23.385 22.5607 23.9636 20.6677 24 20.5637C23.9636 20.5293 20.0869 19.1177 20.051 14.885C20.0144 11.3408 23.0946 9.65502 23.2396 9.55048C21.5001 7.1086 18.7823 6.83326 17.8401 6.76408Z" fill="white"/>
</svg>
