<svg width="329" height="329" viewBox="0 0 329 329" fill="none" xmlns="http://www.w3.org/2000/svg">
<path opacity="0.4" d="M202.597 82.1895H126.161C65.6145 82.1895 65.6145 114.38 65.6145 142.736V167.256C65.6145 170.269 66.9843 173.009 69.313 174.79C71.6417 176.57 74.7923 177.255 77.669 176.433C83.8332 174.79 91.5042 173.968 100.682 173.968C109.86 173.968 111.778 175.064 117.257 179.173L129.722 192.323C138.626 201.912 151.366 207.391 164.516 207.391C177.666 207.391 190.269 201.912 199.309 192.323L211.775 179.173C217.254 175.064 219.172 173.968 228.35 173.968C237.527 173.968 245.198 174.79 251.363 176.433C254.239 177.255 257.253 176.57 259.719 174.79C262.047 173.009 263.417 170.132 263.417 167.256V142.736C263.143 114.38 263.143 82.1895 202.597 82.1895Z" fill="#CB5E21"/>
<path d="M195.611 67.8063C192.049 71.3678 186.159 71.3678 182.598 67.8063L173.694 58.9024V124.243C173.694 129.311 169.584 133.558 164.379 133.558C159.174 133.558 155.064 129.448 155.064 124.243V58.9024L146.16 67.8063C142.599 71.3678 136.708 71.3678 133.147 67.8063C129.585 64.2448 129.585 58.3545 133.147 54.793L157.804 30.1361C157.941 29.9992 157.941 29.9992 158.078 29.9992C158.9 29.3142 159.721 28.6293 160.817 28.2184C162.05 27.6704 163.146 27.3965 164.379 27.3965C165.612 27.3965 166.708 27.6704 167.94 28.0814C169.036 28.4923 170.132 29.1773 170.954 30.1361L195.611 54.793C199.172 58.3545 199.172 64.2448 195.611 67.8063Z" fill="#CB5E21"/>
<path d="M256.02 157.941C248.212 155.886 239.034 154.79 228.076 154.79C212.871 154.79 207.254 158.489 199.446 164.379C199.035 164.653 198.625 165.064 198.214 165.475L185.2 179.31C174.242 190.816 154.516 190.953 143.558 179.173L130.544 165.475C130.133 165.064 129.722 164.653 129.311 164.379C121.503 158.489 115.887 154.79 100.682 154.79C89.7235 154.79 80.5457 155.886 72.7377 157.941C40.1359 166.708 40.1359 192.597 40.1359 215.336V228.076C40.1359 262.458 40.1359 301.361 113.421 301.361H215.336C263.965 301.361 288.622 276.704 288.622 228.076V215.336C288.622 192.597 288.622 166.708 256.02 157.941ZM196.296 252.048H132.462C127.257 252.048 123.01 247.801 123.01 242.459C123.01 237.116 127.257 232.87 132.462 232.87H196.296C201.501 232.87 205.748 237.116 205.748 242.459C205.748 247.801 201.501 252.048 196.296 252.048Z" fill="#CB5E21"/>
<path opacity="0.4" d="M205.748 242.459C205.748 247.801 201.501 252.048 196.296 252.048H132.462C127.257 252.048 123.01 247.801 123.01 242.459C123.01 237.117 127.257 232.87 132.462 232.87H196.296C201.501 232.87 205.748 237.117 205.748 242.459Z" fill="#CB5E21"/>
</svg>
