<svg width="329" height="329" viewBox="0 0 329 329" fill="none" xmlns="http://www.w3.org/2000/svg">
<path opacity="0.4" d="M150.134 28.2188L74.7928 56.4374C60.4096 61.9167 48.629 78.9026 48.629 94.3817V205.338C48.629 216.434 55.8891 231.091 64.7931 237.666L140.134 293.966C153.421 303.966 175.202 303.966 188.489 293.966L263.83 237.666C272.734 230.954 279.994 216.434 279.994 205.338V94.3817C279.994 79.0396 268.213 61.9167 253.83 56.5743L178.489 28.3558C170.818 25.3421 157.942 25.3421 150.134 28.2188Z" fill="#CB5E21"/>
<path d="M146.024 194.928C143.422 194.928 140.819 193.969 138.764 191.914L116.71 169.86C112.737 165.887 112.737 159.312 116.71 155.34C120.682 151.367 127.258 151.367 131.23 155.34L146.024 170.134L197.667 118.491C201.64 114.519 208.215 114.519 212.187 118.491C216.16 122.464 216.16 129.039 212.187 133.011L153.284 191.914C151.23 193.969 148.627 194.928 146.024 194.928Z" fill="#CB5E21"/>
</svg>
