<svg width="118" height="120" viewBox="0 0 118 120" fill="none" xmlns="http://www.w3.org/2000/svg">
<path d="M31.6893 95.7757L64.3285 76.7399L40.7376 58.913L31.6893 95.7757Z" fill="#FF2D55" fill-opacity="0.4"/>
<path d="M31.6893 95.7757L29.2605 95.1795L27.8546 100.907L32.9492 97.936L31.6893 95.7757ZM66.1588 65.3423C64.9764 66.0562 64.5965 67.5934 65.3104 68.7758C66.0243 69.9582 67.5615 70.338 68.7439 69.6242L67.4513 67.4832L66.1588 65.3423ZM82.8117 66.921L84.1023 64.7788L82.8117 66.921ZM87.4153 79.4446C87.3954 80.8256 88.4989 81.9613 89.8799 81.9811C91.261 82.001 92.3966 80.8975 92.4165 79.5165L89.9159 79.4805L87.4153 79.4446ZM46.08 48.7239C45.7161 50.0563 46.5012 51.4314 47.8336 51.7953C49.166 52.1592 50.5411 51.374 50.905 50.0417L48.4925 49.3828L46.08 48.7239ZM44.8393 34.4525L46.5477 32.626L44.8393 34.4525ZM30.0999 28.6518C28.7768 29.048 28.0253 30.4418 28.4215 31.765C28.8177 33.0881 30.2115 33.8396 31.5346 33.4434L30.8173 31.0476L30.0999 28.6518ZM58.6961 55.8887C57.8634 56.9906 58.0816 58.559 59.1836 59.3917C60.2855 60.2244 61.8539 60.0061 62.6866 58.9042L60.6913 57.3964L58.6961 55.8887ZM67.6092 48.2417L67.2645 45.7647C66.6076 45.8562 66.0139 46.2048 65.614 46.734L67.6092 48.2417ZM76.2637 47.0373L76.6084 49.5143C77.9125 49.3329 78.8525 48.1714 78.7581 46.8582L76.2637 47.0373ZM75.5914 37.6787L75.2467 35.2017C73.9427 35.3831 73.0027 36.5446 73.097 37.8578L75.5914 37.6787ZM84.2459 36.4742L84.5906 38.9512C85.2635 38.8576 85.8693 38.4943 86.2687 37.9448C86.6682 37.3953 86.8269 36.707 86.7085 36.0381L84.2459 36.4742ZM82.7754 28.1719L80.7802 26.6641C80.3609 27.2189 80.1916 27.9233 80.3129 28.608L82.7754 28.1719ZM87.9636 25.4544C88.7963 24.3524 88.578 22.7841 87.4761 21.9514C86.3741 21.1187 84.8058 21.3369 83.9731 22.4389L85.9683 23.9466L87.9636 25.4544ZM67.046 81.9281C68.1479 82.7608 69.7163 82.5425 70.549 81.4406C71.3817 80.3386 71.1634 78.7703 70.0615 77.9376L68.5537 79.9328L67.046 81.9281ZM38.0201 53.7249C36.9182 52.8922 35.3498 53.1104 34.5171 54.2124C33.6844 55.3143 33.9027 56.8827 35.0046 57.7154L36.5124 55.7201L38.0201 53.7249ZM31.6893 95.7757L32.9492 97.936L65.5884 78.9003L64.3285 76.7399L63.0686 74.5796L30.4294 93.6153L31.6893 95.7757ZM64.3285 76.7399L65.8362 74.7447L42.2453 56.9178L40.7376 58.913L39.2298 60.9083L62.8207 78.7352L64.3285 76.7399ZM40.7376 58.913L38.3088 58.3168L29.2605 95.1795L31.6893 95.7757L34.118 96.3718L43.1664 59.5092L40.7376 58.913ZM67.4513 67.4832L68.7439 69.6242C69.8283 68.9695 71.8992 68.0837 74.3131 67.7614C76.7046 67.4422 79.2517 67.6958 81.5211 69.0631L82.8117 66.921L84.1023 64.7788C80.5942 62.6652 76.8174 62.381 73.6513 62.8037C70.5076 63.2234 67.7871 64.3592 66.1588 65.3423L67.4513 67.4832ZM82.8117 66.921L81.5211 69.0631C86.2755 71.9275 87.4469 77.2438 87.4153 79.4446L89.9159 79.4805L92.4165 79.5165C92.4635 76.245 90.9033 68.8763 84.1023 64.7788L82.8117 66.921ZM48.4925 49.3828L50.905 50.0417C51.4061 48.2067 51.756 45.2795 51.3014 42.1407C50.8435 38.9794 49.5389 35.4238 46.5477 32.626L44.8393 34.4525L43.131 36.2789C45.066 38.0889 46.0054 40.4699 46.3513 42.8577C46.7004 45.2678 46.4137 47.5019 46.08 48.7239L48.4925 49.3828ZM44.8393 34.4525L46.5477 32.626C40.7489 27.2023 33.2342 27.7134 30.0999 28.6518L30.8173 31.0476L31.5346 33.4434C33.6432 32.8121 39.0772 32.4873 43.131 36.2789L44.8393 34.4525ZM60.6913 57.3964L62.6866 58.9042L69.6045 49.7495L67.6092 48.2417L65.614 46.734L58.6961 55.8887L60.6913 57.3964ZM67.6092 48.2417L67.9539 50.7187L76.6084 49.5143L76.2637 47.0373L75.919 44.5603L67.2645 45.7647L67.6092 48.2417ZM76.2637 47.0373L78.7581 46.8582L78.0859 37.4995L75.5914 37.6787L73.097 37.8578L73.7693 47.2165L76.2637 47.0373ZM75.5914 37.6787L75.9362 40.1557L84.5906 38.9512L84.2459 36.4742L83.9012 33.9972L75.2467 35.2017L75.5914 37.6787ZM84.2459 36.4742L86.7085 36.0381L85.238 27.7357L82.7754 28.1719L80.3129 28.608L81.7834 36.9104L84.2459 36.4742ZM82.7754 28.1719L84.7707 29.6796L87.9636 25.4544L85.9683 23.9466L83.9731 22.4389L80.7802 26.6641L82.7754 28.1719ZM68.5537 79.9328L70.0615 77.9376L65.8362 74.7447L64.3285 76.7399L62.8207 78.7352L67.046 81.9281L68.5537 79.9328ZM40.7376 58.913L42.2453 56.9178L38.0201 53.7249L36.5124 55.7201L35.0046 57.7154L39.2298 60.9083L40.7376 58.913Z" fill="#FF2D55"/>
<path d="M83.3342 93.3143C82.1586 94.87 79.9445 95.1781 78.3888 94.0025C76.8331 92.827 76.525 90.6128 77.7006 89.0571C78.8762 87.5014 81.0903 87.1933 82.646 88.3689C84.2017 89.5445 84.5098 91.7586 83.3342 93.3143Z" fill="#FF2D55" fill-opacity="0.4"/>
<path d="M92.6646 51.6863C91.489 53.242 89.2749 53.5501 87.7192 52.3745C86.1635 51.1989 85.8554 48.9848 87.031 47.4291C88.2065 45.8734 90.4207 45.5653 91.9764 46.7409C93.5321 47.9165 93.8402 50.1306 92.6646 51.6863Z" fill="#FF2D55" fill-opacity="0.4"/>
<path d="M63.0879 29.3361C61.9124 30.8918 59.6982 31.1999 58.1425 30.0243C56.5868 28.8487 56.2787 26.6346 57.4543 25.0789C58.6299 23.5232 60.844 23.2151 62.3997 24.3907C63.9554 25.5663 64.2635 27.7804 63.0879 29.3361Z" fill="#FF2D55" fill-opacity="0.4"/>
<path d="M28.7822 45.453C27.6066 47.0087 25.3925 47.3168 23.8368 46.1412C22.2811 44.9656 21.973 42.7515 23.1486 41.1958C24.3242 39.6401 26.5383 39.332 28.094 40.5076C29.6497 41.6832 29.9578 43.8973 28.7822 45.453Z" fill="#FF2D55" fill-opacity="0.4"/>
<path d="M23.4288 61.3216C22.2532 62.8773 20.0391 63.1854 18.4834 62.0098C16.9277 60.8342 16.6196 58.6201 17.7952 57.0644C18.9707 55.5087 21.1849 55.2006 22.7406 56.3762C24.2963 57.5517 24.6044 59.7659 23.4288 61.3216Z" fill="#FF2D55" fill-opacity="0.4"/>
</svg>
