<svg width="25" height="28" viewBox="0 0 25 28" fill="none" xmlns="http://www.w3.org/2000/svg">
<path d="M8.12107 21.7777H15.8988V18.8611C15.8988 17.7916 15.5181 16.8761 14.7565 16.1145C13.9949 15.353 13.0794 14.9722 12.01 14.9722C10.9405 14.9722 10.025 15.353 9.26343 16.1145C8.50185 16.8761 8.12107 17.7916 8.12107 18.8611V21.7777ZM4.23218 23.7222V21.7777H6.17662V18.8611C6.17662 17.8726 6.40753 16.945 6.86933 16.0781C7.33114 15.2112 7.97523 14.5185 8.80162 13.9999C7.97523 13.4814 7.33114 12.7887 6.86933 11.9218C6.40753 11.0549 6.17662 10.1273 6.17662 9.13883V6.22217H4.23218V4.27772H19.7877V6.22217H17.8433V9.13883C17.8433 10.1273 17.6124 11.0549 17.1506 11.9218C16.6888 12.7887 16.0447 13.4814 15.2183 13.9999C16.0447 14.5185 16.6888 15.2112 17.1506 16.0781C17.6124 16.945 17.8433 17.8726 17.8433 18.8611V21.7777H19.7877V23.7222H4.23218Z" fill="#FF7043"/>
</svg>
