<svg width="94" height="94" viewBox="0 0 94 94" fill="none" xmlns="http://www.w3.org/2000/svg">
<path d="M87.9246 83.7881L85.0367 80.9002C86.5197 78.6367 87.4172 75.9049 87.4172 72.978C87.4172 65.0168 80.939 58.5386 72.9778 58.5386C65.0166 58.5386 58.5383 65.0168 58.5383 72.978C58.5383 80.9392 65.0166 87.4175 72.9778 87.4175C75.9048 87.4175 78.6365 86.5199 80.9 85.0369L83.7879 87.9248C84.3733 88.5102 85.1147 88.7834 85.8562 88.7834C86.5977 88.7834 87.3392 88.5102 87.9246 87.9248C89.0563 86.7931 89.0563 84.9198 87.9246 83.7881Z" fill="#AF52DE"/>
<path opacity="0.4" d="M7.80518 50.6167V27.2795C7.80518 16.5474 16.5469 7.84473 27.318 7.84473H66.3435C77.1146 7.84473 85.8563 16.5474 85.8563 27.3185V54.5583C85.8563 65.2903 77.1146 73.993 66.3435 73.993H60.4897C59.2799 73.993 58.1092 74.5784 57.3677 75.5541L51.5138 83.3202C48.9382 86.7544 44.7233 86.7544 42.1476 83.3202L36.2938 75.5541C35.6303 74.6955 34.2645 73.993 33.1718 73.993H27.318C16.5469 73.993 7.80518 65.2903 7.80518 54.5583V50.6167Z" fill="#AF52DE"/>
<path d="M46.8305 46.831C44.6451 46.831 42.8889 45.0748 42.8889 42.9284C42.8889 40.782 44.6451 39.0259 46.7915 39.0259C48.9379 39.0259 50.694 40.782 50.694 42.9284C50.694 45.0748 49.016 46.831 46.8305 46.831Z" fill="#AF52DE"/>
<path d="M62.4409 46.831C60.2555 46.831 58.4993 45.0748 58.4993 42.9284C58.4993 40.782 60.2554 39.0259 62.4018 39.0259C64.5482 39.0259 66.3044 40.782 66.3044 42.9284C66.3044 45.0748 64.6263 46.831 62.4409 46.831Z" fill="#AF52DE"/>
<path d="M31.2204 46.831C29.035 46.831 27.2788 45.0748 27.2788 42.9284C27.2788 40.782 29.035 39.0259 31.1814 39.0259C33.3278 39.0259 35.0839 40.782 35.0839 42.9284C35.0839 45.0748 33.4059 46.831 31.2204 46.831Z" fill="#AF52DE"/>
</svg>
