<svg width="91" height="91" viewBox="0 0 91 91" fill="none" xmlns="http://www.w3.org/2000/svg">
<path opacity="0.4" d="M41.3017 75.1004C59.9685 75.1004 75.1009 59.968 75.1009 41.3012C75.1009 22.6344 59.9685 7.50195 41.3017 7.50195C22.6349 7.50195 7.50244 22.6344 7.50244 41.3012C7.50244 59.968 22.6349 75.1004 41.3017 75.1004Z" fill="#004CC4"/>
<path d="M82.4911 71.0872C81.2531 68.7989 78.6272 67.5234 75.101 67.5234C72.4376 67.5234 70.1493 68.6113 68.7988 70.487C67.4484 72.3626 67.1483 74.876 67.9735 77.3894C69.5866 82.2661 72.4001 83.3539 73.9381 83.5415C74.1632 83.579 74.3883 83.579 74.6509 83.579C76.3014 83.579 78.8523 82.8663 81.3282 79.1525C83.3164 76.264 83.6915 73.3755 82.4911 71.0872Z" fill="#004CC4"/>
</svg>
