<svg width="93" height="93" viewBox="0 0 93 93" fill="none" xmlns="http://www.w3.org/2000/svg">
<path opacity="0.4" d="M70.8855 21.9269L25.4848 67.3277C23.7832 69.0293 20.9214 68.7972 19.5293 66.7862C14.7339 59.7866 11.9109 51.5109 11.9109 43.0031V26.0262C11.9109 22.8551 14.3086 19.2586 17.2476 18.0598L38.7879 9.24258C43.6605 7.23164 49.0747 7.23164 53.9473 9.24258L69.5707 15.6234C72.1617 16.6676 72.8191 19.9934 70.8855 21.9269Z" fill="#008A05"/>
<path d="M74.5207 27.2252C77.0344 25.0983 80.8629 26.9158 80.8629 30.2029V43.0033C80.8629 61.9138 67.1344 79.6255 48.3786 84.8076C47.1024 85.1556 45.7102 85.1556 44.3954 84.8076C38.904 83.2607 33.7992 80.6698 29.4293 77.2666C27.573 75.8358 27.3797 73.1287 29.0039 71.4659C37.4344 62.842 62.107 37.7053 74.5207 27.2252Z" fill="#008A05"/>
</svg>
