<svg width="16" height="20" viewBox="0 0 16 20" fill="none" xmlns="http://www.w3.org/2000/svg">
<path d="M3.88889 17.4999H11.6667V14.5832C11.6667 13.5138 11.2859 12.5983 10.5243 11.8367C9.76273 11.0751 8.84722 10.6943 7.77778 10.6943C6.70833 10.6943 5.79282 11.0751 5.03125 11.8367C4.26968 12.5983 3.88889 13.5138 3.88889 14.5832V17.4999ZM0 19.4443V17.4999H1.94444V14.5832C1.94444 13.5948 2.17535 12.6671 2.63715 11.8002C3.09896 10.9333 3.74306 10.2406 4.56944 9.72211C3.74306 9.2036 3.09896 8.51089 2.63715 7.64399C2.17535 6.77709 1.94444 5.84943 1.94444 4.861V1.94434H0V-0.000108719H15.5556V1.94434H13.6111V4.861C13.6111 5.84943 13.3802 6.77709 12.9184 7.64399C12.4566 8.51089 11.8125 9.2036 10.9861 9.72211C11.8125 10.2406 12.4566 10.9333 12.9184 11.8002C13.3802 12.6671 13.6111 13.5948 13.6111 14.5832V17.4999H15.5556V19.4443H0Z" fill="#FF7043"/>
</svg>
