<svg width="375" height="411" viewBox="0 0 375 411" fill="none" xmlns="http://www.w3.org/2000/svg">
<path d="M197.771 152.222C193.78 150.67 200.984 80.8921 229.846 42.8949C232.567 39.3124 236.994 36.454 240.246 39.5626C243.961 43.1142 242.228 49.6318 239.238 53.813C207.596 98.0657 203.318 134.028 197.771 152.222Z" fill="#CB5E21" stroke="#CB5E21" stroke-width="4.66018" stroke-linejoin="round"/>
<path d="M170.306 171.308C158.654 134.234 137.746 103.522 103.896 81.1055C97.4921 76.8643 91.0249 68.5563 96.5266 63.1958C100.873 58.9607 107.742 61.409 112.534 65.1326C144.784 90.1916 163.17 126.33 170.306 171.308Z" fill="#CB5E21" stroke="#CB5E21" stroke-width="4.66018" stroke-linejoin="round"/>
<path d="M181.477 138.723C176.122 119.016 169.584 101.28 161.137 86.6038C159.716 84.1338 158.494 80.5381 159.957 78.092C163.012 72.9827 169.545 78.9865 171.371 84.6529C177.366 103.265 180.911 121.337 181.71 138.723H181.477Z" fill="#CB5E21" stroke="#CB5E21" stroke-width="4.66018" stroke-linejoin="round"/>
<path d="M160.531 186.44C140.086 156.094 109.094 135.898 67.7391 126.035C61.362 124.514 54.6113 120.378 57.7453 114.62C60.3705 109.796 67.6714 108.885 72.8569 110.693C115.438 125.544 144.973 150.535 160.298 186.44H160.531Z" fill="#CB5E21" stroke="#CB5E21" stroke-width="4.66018" stroke-linejoin="round"/>
<path d="M162.158 219.486C121.685 199.555 84.4111 197.395 49.7148 208.97C41.4171 211.738 30.3181 206.874 33.2416 198.63C34.3311 195.558 36.9859 194.287 40.1297 193.425C85.2544 181.048 126.427 187.576 162.391 219.719L162.158 219.486Z" fill="#CB5E21" stroke="#CB5E21" stroke-width="4.66018" stroke-linejoin="round"/>
<path d="M109.791 225.076C91.1109 228.635 75.8306 234.742 66.1828 244.618C65.3269 245.494 64.1694 246.024 62.9447 246.024C61.0481 246.024 59.3761 244.78 58.8311 242.964L58.4963 241.848C57.9664 240.081 58.2732 238.142 59.5018 236.767C70.33 224.647 88.9199 223.086 109.791 224.844V225.076Z" fill="#CB5E21" stroke="#CB5E21" stroke-width="4.66018" stroke-linejoin="round"/>
<path d="M153.081 230.889C130.975 241.342 113.285 252.3 104.748 264.412C99.123 272.393 97.6332 290.242 88.8999 285.876C83.9666 283.409 84.7881 276.431 85.8155 273.25C93.2635 252.069 119.099 239.501 153.081 230.889Z" fill="#CB5E21" stroke="#CB5E21" stroke-width="4.66018" stroke-linejoin="round"/>
<path d="M211.269 242.995C233.741 253.429 251.717 266.631 262.063 284.688C264.878 289.6 271.345 293.116 275.114 288.892C275.217 288.776 275.317 288.658 275.413 288.539C276.765 286.859 276.412 284.521 275.508 282.563C261.31 257.659 238.268 247.417 211.269 242.995Z" fill="#CB5E21" stroke="#CB5E21" stroke-width="4.66018" stroke-linejoin="round"/>
<path d="M227.796 225.071L230.734 227.294C265.34 217.818 298.374 218.269 329.391 232.374C336.668 235.682 347.925 234.125 344.978 226.694C343.98 224.176 341.519 222.336 339.047 221.227C304.042 205.527 266.678 209.113 227.796 225.071Z" fill="#CB5E21" stroke="#CB5E21" stroke-width="4.66018" stroke-linejoin="round"/>
<path d="M227.329 214.369C227.243 214.455 227.096 214.394 227.096 214.273V208.969C227.096 208.543 227.215 208.121 227.437 207.758C250.275 170.475 286.655 151.943 331.636 145.244C336.205 144.564 340.867 145.002 345.289 146.341L345.7 146.465C347.158 146.907 348.43 147.277 349.301 148.527C354.114 155.437 343.774 162.75 335.355 162.569C290.931 161.608 255.829 180.631 227.329 214.369Z" fill="#CB5E21" stroke="#CB5E21" stroke-width="4.66018" stroke-linejoin="round"/>
<path d="M212.9 155.021C212.9 155.017 212.901 155.013 212.903 155.01C230.89 119.037 258.245 92.246 300.675 80.0214C310.814 77.1001 322.677 65.8973 313.3 61.058C312.913 60.8583 312.503 60.6722 312.07 60.5C310.699 59.9556 309.211 59.8193 307.736 59.8193C304.766 59.8193 301.836 60.5681 299.253 62.0341C253.066 88.2384 221.178 118.455 212.949 155.026C212.943 155.055 212.9 155.051 212.9 155.021Z" fill="#CB5E21" stroke="#CB5E21" stroke-width="4.66018" stroke-linejoin="round"/>
<path d="M306.932 122.43L338.12 100.085H300.88L331.371 122.43L319.5 85.4219L306.932 122.43Z" fill="#CB5E21" stroke="#CB5E21" stroke-width="4.66018" stroke-linejoin="round"/>
<path d="M348.592 204.824L372.566 187.833H344.17L367.445 204.824L358.368 176.661L348.592 204.824Z" fill="#CB5E21" stroke="#CB5E21" stroke-width="4.66018" stroke-linejoin="round"/>
<path d="M284.354 263.011L308.328 246.02H279.932L303.207 263.011L294.13 234.848L284.354 263.011Z" fill="#CB5E21" stroke="#CB5E21" stroke-width="4.66018" stroke-linejoin="round"/>
<path d="M66.2677 170.839L85.8188 156.874H62.5437L81.6293 170.839L74.1813 147.797L66.2677 170.839Z" fill="#CB5E21" stroke="#CB5E21" stroke-width="4.66018" stroke-linejoin="round"/>
<path d="M168.442 53.0702L211.501 22.3468H160.295L202.191 53.0702L185.898 2.33008L168.442 53.0702Z" fill="#CB5E21" stroke="#CB5E21" stroke-width="4.66018" stroke-linejoin="round"/>
<path d="M46.9464 98.2263L73.0145 79.6061H42.0586L67.4285 98.2263L57.4202 67.5029L46.9464 98.2263Z" fill="#CB5E21" stroke="#CB5E21" stroke-width="4.66018" stroke-linejoin="round"/>
<path d="M11.5701 180.155L43.9225 157.112H5.51855L36.9399 180.155L24.6041 141.983L11.5701 180.155Z" fill="#CB5E21" stroke="#CB5E21" stroke-width="4.66018" stroke-linejoin="round"/>
<path d="M13.3264 244.977C16.1456 242.953 16.9116 239.196 15.0372 236.585C13.1628 233.975 9.35793 233.5 6.53872 235.524C3.71951 237.548 2.95356 241.306 4.82793 243.916C6.7023 246.526 10.5072 247.002 13.3264 244.977Z" fill="#CB5E21" stroke="#CB5E21" stroke-width="4.66018" stroke-linejoin="round"/>
<path d="M293.753 145.21C295.737 143.786 296.251 141.107 294.902 139.228C293.552 137.348 290.85 136.98 288.866 138.404C286.882 139.829 286.368 142.507 287.717 144.387C289.067 146.266 291.769 146.635 293.753 145.21Z" fill="#CB5E21" stroke="#CB5E21" stroke-width="4.66018" stroke-linejoin="round"/>
<path d="M189.16 182.011C193.274 182.011 196.608 178.677 196.608 174.563C196.608 170.45 193.274 167.115 189.16 167.115C185.047 167.115 181.712 170.45 181.712 174.563C181.712 178.677 185.047 182.011 189.16 182.011Z" fill="#CB5E21" stroke="#CB5E21" stroke-width="4.66018" stroke-linejoin="round"/>
<path d="M259.374 147.15C184.945 180.514 151.118 233.355 170.394 288.526C187.26 336.8 223.685 353.926 182.453 408.084C233.451 364.746 215.22 350.593 187.26 287.826C162.464 232.162 201.78 184.559 259.144 147.207L259.374 147.15Z" fill="#CB5E21" stroke="#CB5E21" stroke-width="4.66018" stroke-linejoin="round"/>
</svg>
